# xmcd
# 
# Track frame offsets:
#     150
#     18125
#     37223
#     59150
#     69335
#     88803
#     107220
#     128710
#     150180
#     167878
#     184368
#     202403
#     218105
#     239640
#     257905
#     276290
#     293710
#     307535
# 
# Disc length: 4372
# 
# Revision: 89
# Processed by: cddbd v1.5.2PL0 Copyright (c) Steve Scherf et al.
# Submitted via: fre:ac v1.1beta1pre5
# 
DISCID=12111212
DTITLE=ZZ Top - Greatest Hits
DYEAR=1992
DGENRE=Bluesrock
TTITLE0=Gimme All Your Lovin' (from Eliminator)
TTITLE1=Sharp Dressed Man (from Eliminator)
TTITLE2=Rough Boy (from Afterburner)
TTITLE3=Tush (from Fandango)
TTITLE4=My Head's In Mississippi (from Recycler)
TTITLE5=Pearl Necklace (from El Loco)
TTITLE6=I'm Bad, I'm Nationwide (from Deguello)
TTITLE7=Viva Las Vegas
TTITLE8=Doubleback (from Recycler)
TTITLE9=Gun Love
TTITLE10=Got Me Under Pressure (from Eliminator)
TTITLE11=Give It Up (from Recycler)
TTITLE12=Cheap Sunglasses (from Deguello)
TTITLE13=Sleeping Bag (from Afterburner)
TTITLE14=Planet Of Women (from Afterburner)
TTITLE15=La Grange (from Tres Hombres)
TTITLE16=Tube Snake Boogie (from El Loco)
TTITLE17=Legs (from Eliminator)
EXTD=
EXTT0=
EXTT1=
EXTT2=
EXTT3=
EXTT4=
EXTT5=
EXTT6=
EXTT7=
EXTT8=
EXTT9=
EXTT10=
EXTT11=
EXTT12=
EXTT13=
EXTT14=
EXTT15=
EXTT16=
EXTT17=
PLAYORDER=
